<svg width="18" height="18" viewBox="0 0 18 18" fill="none" xmlns="http://www.w3.org/2000/svg">
<path fill-rule="evenodd" clip-rule="evenodd" d="M17.8473 0.152695C18.0509 0.356288 18.0509 0.686377 17.8473 0.88997L9.73728 9L17.8473 17.11C18.0509 17.3136 18.0509 17.6437 17.8473 17.8473C17.6437 18.0509 17.3136 18.0509 17.11 17.8473L9 9.73728L0.88997 17.8473C0.686377 18.0509 0.356288 18.0509 0.152695 17.8473C-0.0508982 17.6437 -0.0508982 17.3136 0.152695 17.11L8.26272 9L0.152695 0.88997C-0.0508982 0.686377 -0.0508982 0.356288 0.152695 0.152695C0.356288 -0.0508982 0.686377 -0.0508982 0.88997 0.152695L9 8.26272L17.11 0.152695C17.3136 -0.0508982 17.6437 -0.0508982 17.8473 0.152695Z" fill="#616161"/>
</svg>
